<svg width="16" height="16" fill="none" xmlns="http://www.w3.org/2000/svg"><style>path#hand{fill:#fcea2b}@media (prefers-color-scheme:dark){path#hand{fill:#fff}}</style><path id="hand" d="M9.748 12.401l.846.428c.908.3 1.35-1.65-.111-2.302l-.462-.31.772.31c.869.408 1.882-1.537.12-2.389l-.7-.138 1.229.138c.765.453.902-1.498-.298-2.067l-3.913-.783C7.508 2.609 7.723.885 5.737.531c-.606-.093-1.355 0-1.2.615.8 3.603-.77 5.569-1.207 6.025a4.54 4.54 0 0 0 0 6.421c.77.723 1.517.672 3.392.672.355 0 4.829 1.104 4.829 1.104 1.693.446 2.623-1.373 1.483-1.758l-.376-.258"/><path d="M10.686 8.301c1.443.364 2.286-1.866.2-2.298l-3.655-.715C7.508 2.609 7.723.885 5.737.531c-.606-.093-1.355 0-1.2.615.8 3.603-.77 5.569-1.207 6.025a4.54 4.54 0 0 0 0 6.421c.77.723 1.517.672 3.392.672.355 0 5.083 1.166 5.083 1.166 1.694.446 2.21-1.36 1.07-1.744l-1.07-.386M10.685 8.3c1.784.402 1.233 2.603-.202 2.226m.203-2.226l-1.018-.207m.815 2.433c1.453.395 1.117 2.653-.318 2.266l-1.403-.39m1.72-1.876l-1.238-.353" stroke="#000" stroke-width=".8" stroke-miterlimit="10" stroke-linecap="round" stroke-linejoin="round"/></svg>